<?xml version="1.0" encoding="UTF-8" standalone="no"?>
<!DOCTYPE svg PUBLIC "-//W3C//DTD SVG 1.1//EN" "http://www.w3.org/Graphics/SVG/1.1/DTD/svg11.dtd">
<svg width="100%" height="100%" viewBox="0 0 2000 2000" version="1.1" xmlns="http://www.w3.org/2000/svg" xmlns:xlink="http://www.w3.org/1999/xlink" xml:space="preserve" xmlns:serif="http://www.serif.com/" style="fill-rule:evenodd;clip-rule:evenodd;stroke-linejoin:round;stroke-miterlimit:2;">
    <g transform="matrix(1.81755,0,0,1.81755,-1329.22,-605.17)">
        <path d="M1305.83,341.013L1762.07,604.425L1762.07,1131.25L1305.83,1394.66L849.585,1131.25L849.585,604.425L1305.83,341.013Z" style="fill:rgb(181,241,255);"/>
    </g>
    <g transform="matrix(1.25912,0,0,1.25912,-346.764,-127.612)">
        <path d="M1305.83,341.013L1762.07,604.425L1762.07,1131.25L1305.83,1394.66L849.585,1131.25L849.585,604.425L1305.83,341.013Z" style="fill:rgb(0,205,255);"/>
    </g>
    <g transform="matrix(2.00207,0,0,2.00207,-30.8522,175.764)">
        <g transform="matrix(346.689,0,0,346.689,106.505,499.917)">
            <path d="M0.048,-0L0.048,-0.712L0.201,-0.712C0.229,-0.712 0.254,-0.708 0.275,-0.701C0.296,-0.694 0.316,-0.681 0.333,-0.662C0.35,-0.643 0.362,-0.622 0.369,-0.597C0.376,-0.572 0.379,-0.538 0.379,-0.495C0.379,-0.463 0.377,-0.436 0.374,-0.414C0.37,-0.392 0.362,-0.371 0.35,-0.352C0.336,-0.329 0.317,-0.311 0.294,-0.298C0.271,-0.285 0.24,-0.278 0.202,-0.278L0.15,-0.278L0.15,-0L0.048,-0ZM0.15,-0.616L0.15,-0.374L0.199,-0.374C0.22,-0.374 0.236,-0.377 0.247,-0.383C0.258,-0.389 0.267,-0.397 0.272,-0.408C0.277,-0.418 0.281,-0.43 0.282,-0.445C0.283,-0.46 0.283,-0.476 0.283,-0.494C0.283,-0.511 0.283,-0.527 0.282,-0.542C0.281,-0.557 0.278,-0.57 0.273,-0.581C0.268,-0.592 0.26,-0.601 0.249,-0.607C0.238,-0.613 0.223,-0.616 0.203,-0.616L0.15,-0.616Z" style="fill-rule:nonzero;"/>
        </g>
        <g transform="matrix(346.689,0,0,346.689,234.779,499.917)">
            <path d="M0.254,-0.249L0.204,-0.507L0.202,-0.507L0.152,-0.249L0.254,-0.249ZM0.002,-0L0.161,-0.712L0.246,-0.712L0.405,-0L0.303,-0L0.273,-0.153L0.134,-0.153L0.104,-0L0.002,-0Z" style="fill-rule:nonzero;"/>
        </g>
        <g transform="matrix(346.689,0,0,346.689,375.882,499.917)">
            <path d="M0.048,-0L0.048,-0.712L0.15,-0.712L0.15,-0.387L0.152,-0.387L0.301,-0.712L0.403,-0.712L0.264,-0.427L0.429,-0L0.321,-0L0.205,-0.316L0.15,-0.213L0.15,-0L0.048,-0Z" style="fill-rule:nonzero;"/>
        </g>
        <g transform="matrix(346.689,0,0,346.689,523.571,499.917)">
            <path d="M0.115,-0L0.115,-0.616L-0.003,-0.616L-0.003,-0.712L0.335,-0.712L0.335,-0.616L0.217,-0.616L0.217,-0L0.115,-0Z" style="fill-rule:nonzero;"/>
        </g>
    </g>
</svg>
